<svg version="1.2" xmlns="http://www.w3.org/2000/svg" viewBox="0 0 798 342" width="798" height="342">
	<title>logo-with-text</title>
	<style>
		tspan { white-space:pre } 
		.t0 { font-size: 42px;fill: #000000;font-weight: 400;font-family: "DejaVuSans", "DejaVu Sans" } 
		.s1 { fill: #d65583 } 
		.s2 { fill: #61cdf6 } 
		.s3 { fill: #00a5d2 } 
	</style>
	<text id="TRANS EUROPE AND CENTRAL ASIA" style="transform: matrix(1,0,0,1,336,279.8)" >
		<tspan x="0" y="0" class="t0">T</tspan><tspan  y="0" class="t0">R</tspan><tspan  y="0" class="t0">A</tspan><tspan  y="0" class="t0">N</tspan><tspan  y="0" class="t0">S</tspan><tspan  y="0" class="t0"> </tspan><tspan  y="0" class="t0">E</tspan><tspan  y="0" class="t0">U</tspan><tspan  y="0" class="t0">R</tspan><tspan  y="0" class="t0">O</tspan><tspan  y="0" class="t0">P</tspan><tspan  y="0" class="t0">E</tspan><tspan  y="0" class="t0">
</tspan>
		<tspan x="0" y="44.4" class="t0">A</tspan><tspan  y="44.4" class="t0">N</tspan><tspan  y="44.4" class="t0">D</tspan><tspan  y="44.4" class="t0"> </tspan><tspan  y="44.4" class="t0">C</tspan><tspan  y="44.4" class="t0">E</tspan><tspan  y="44.4" class="t0">N</tspan><tspan  y="44.4" class="t0">T</tspan><tspan  y="44.4" class="t0">R</tspan><tspan  y="44.4" class="t0">A</tspan><tspan  y="44.4" class="t0">L</tspan><tspan  y="44.4" class="t0"> </tspan><tspan  y="44.4" class="t0">A</tspan><tspan  y="44.4" class="t0">S</tspan><tspan  y="44.4" class="t0">I</tspan><tspan  y="44.4" class="t0">A</tspan><tspan  y="44.4" class="t0">
</tspan>
	</text>
	<g id="Layer_1-2">
		<path class="s1" d="m130.2 57.7v37.8h-34.4v63.3q0 8 3.9 11.6 4 3.7 11.6 4.1 7.6 0.5 18.9-0.1v35.6q-39.9 4.6-56.8-7.4-16.9-12.1-16.9-43.8v-63.3h-26.5v-37.8h26.5v-30.8l39.3-11.9v42.7z"/>
		<path fill-rule="evenodd" class="s1" d="m269.9 76.6v-18.9h38.4v145q0 35.1-23.4 53.9-23.2 18.6-56.1 18.6-51.7 0-72.1-37.1l33.5-19.2q11.2 21.3 39.9 21.3 18.5 0 29.2-9.8 10.7-9.7 10.7-27.7v-16.4q-17.4 23.1-48.8 23.1c-20.9 0-39.6-7.5-54.2-22.5q-21.6-23.2-21.6-55.5 0-32.3 21.9-55.1 22-22.9 53.9-22.9c21.3 0 37.2 7.7 48.7 23.2zm-12 84.8q12-11.7 12-30 0-18.3-12.1-29.5-11.9-11.9-30.5-11.9c-12.4 0-22.4 3.9-30.7 11.9q-11.9 11.2-11.9 29.5 0 18.3 12 30 12 11.8 30.6 11.8 18.6 0 30.6-11.8 0 0 0 0z"/>
		<path fill-rule="evenodd" class="s1" d="m377.1 150q7.6 28.7 43 28.6 22.5 0.1 34.1-15.2l31.6 18.3q-22.5 32.6-66.3 32.6-37.8 0-60.6-22.9-22.9-22.8-22.9-57.6c0-23.1 7.5-41.8 22.5-57.2q22.3-23.2 57.9-23.2c23.8 0 40.9 7.7 55.1 23.2q21.9 23.1 21.9 57.2 0 6.5-1.5 16.2zm-0.6-30.5h77.7q-3.4-14.9-13.6-22.8-10.2-7.9-24.2-7.9-15.8 0-26.2 8-10.3 8.1-13.7 22.7z"/>
		<path class="s1" d="m621.3 139.9v-82.2h39.3v152.3h-39.3v-17q-14 21.3-45.3 21.3-25 0-41.4-16.8-16.2-17-16.2-46.3v-93.5h39.3v88.6q0 15 8.1 23.2 8 8.2 22 8.2 15.6 0 24.6-9.6 8.9-9.6 8.9-28.2z"/>
		<path class="s2" d="m739.9 177.6q-1.5-2-3.5-3.5c-2.9-2.1-6.4-3.5-10.3-3.5h-8.1c-9.6 0-17.3 7.8-17.3 17.4v8.3c0 3.8 1.3 7.3 3.5 10.1q1.5 2 3.4 3.5c2.9 2.2 6.5 3.5 10.4 3.5h25.4v-25.4c0-3.9-1.3-7.5-3.5-10.4z"/>
		<path class="s3" d="m740 213.4h-22c-3.9 0-7.5-1.3-10.4-3.5q-1.9-1.5-3.4-3.5c-2.2-2.8-3.5-6.3-3.5-10.1v31.6c0 11.8 9.6 21.4 21.4 21.4 11.7 0 21.3-9.6 21.3-21.4v-14.5z"/>
		<path class="s3" d="m757.9 170.6h-31.8c3.9 0 7.4 1.4 10.3 3.5q2 1.5 3.5 3.5c2.2 2.9 3.5 6.5 3.5 10.4v25.4h14.5c11.8 0 21.4-9.6 21.4-21.4 0-11.8-9.6-21.4-21.4-21.4z"/>
	</g>
</svg>