<?xml version="1.0" encoding="UTF-8"?><svg id="Layer_2" xmlns="http://www.w3.org/2000/svg" viewBox="0 0 749.264 260.235"><defs><style>.cls-1{fill:#61cdf6;}.cls-1,.cls-2,.cls-3{stroke-width:0px;}.cls-2{fill:#d65583;}.cls-3{fill:#00a5d2;}</style></defs><g id="Layer_1-2"><path class="cls-2" d="m100.186,42.664v37.789h-34.407v63.386c0,5.282,1.32,9.144,3.959,11.577,2.639,2.442,6.499,3.813,11.568,4.111,5.07.308,11.37.258,18.88-.149v35.654c-26.599,3.048-45.519.556-56.79-7.466-11.271-8.023-16.896-22.598-16.896-43.727v-63.386H0v-37.789h26.49V11.885L65.769,0v42.664h34.417Z"/><path class="cls-2" d="m227.924,146.431c8.017-7.814,12.025-17.822,12.025-30.015s-4.068-22.042-12.183-29.558c-7.917-7.923-18.067-11.885-30.449-11.885s-22.432,3.962-30.756,11.885c-7.917,7.516-11.876,17.366-11.876,29.558s4.008,22.201,12.025,30.015c8.016,7.824,18.216,11.736,30.598,11.736s22.581-3.912,30.598-11.736h.02Zm12.025-84.872v-18.895h38.366v145.051c0,23.363-7.818,41.334-23.444,53.933-15.428,12.391-34.1,18.587-56.026,18.587-34.517,0-58.566-12.391-72.168-37.174l33.495-19.202c7.511,14.218,20.805,21.327,39.894,21.327,12.382,0,22.125-3.257,29.228-9.75,7.104-6.503,10.656-15.747,10.656-27.731v-16.452c-11.568,15.439-27.81,23.164-48.724,23.164s-39.586-7.516-54.201-22.548c-14.416-15.439-21.619-33.927-21.619-55.463s7.312-39.924,21.926-55.155c14.614-15.231,32.582-22.856,53.893-22.856s37.146,7.725,48.724,23.164h0Z"/><path class="cls-2" d="m346.525,104.531h77.645c-2.232-9.949-6.747-17.574-13.553-22.856-6.806-5.282-14.872-7.923-24.208-7.923-10.556,0-19.287,2.691-26.183,8.072-6.905,5.381-11.469,12.947-13.701,22.697v.01Zm115.406,30.472h-114.801c5.07,19.103,19.386,28.645,42.94,28.645,15.021,0,26.391-5.074,34.1-15.241l31.669,18.289c-15.021,21.744-37.146,32.606-66.384,32.606-25.171,0-45.371-7.615-60.6-22.856-15.229-15.241-22.839-34.433-22.839-57.597s7.511-41.85,22.531-57.289c14.813-15.439,34.1-23.164,57.852-23.164s40.906,7.725,55.113,23.164c14.614,15.439,21.926,34.543,21.926,57.289,0,4.269-.506,9.651-1.518,16.154h.01Z"/><path class="cls-2" d="m591.346,124.945V42.664h39.279v152.368h-39.279v-17.068c-9.336,14.218-24.466,21.327-45.371,21.327-16.648,0-30.449-5.58-41.412-16.76-10.765-11.378-16.142-26.818-16.142-46.318V42.664h39.279v88.675c0,9.959,2.689,17.673,8.066,23.164,5.377,5.481,12.739,8.231,22.075,8.231,10.358,0,18.523-3.197,24.516-9.601,5.983-6.404,8.979-15.797,8.979-28.188h.01Z"/><path class="cls-1" d="m709.93,162.629c-.997-1.326-2.17-2.499-3.498-3.492-2.893-2.163-6.443-3.49-10.325-3.49h-8.104c-9.559,0-17.339,7.776-17.339,17.336v8.276c.038,3.825,1.35,7.324,3.491,10.178.994,1.325,2.165,2.497,3.491,3.49,2.894,2.17,6.449,3.503,10.337,3.503h25.463v-25.446c0-3.896-1.34-7.456-3.517-10.354Z"/><path class="cls-3" d="m709.956,198.429h-21.972c-3.888,0-7.442-1.333-10.337-3.503-1.326-.994-2.497-2.165-3.491-3.49-2.141-2.854-3.454-6.353-3.491-10.178v31.612c0,11.796,9.597,21.393,21.389,21.393s21.393-9.597,21.393-21.393v-14.441h-3.491Z"/><path class="cls-3" d="m727.875,155.647h-31.767c3.881,0,7.432,1.327,10.325,3.49,1.328.993,2.501,2.166,3.498,3.492,2.177,2.898,3.517,6.458,3.517,10.354v25.446h14.428c11.792,0,21.389-9.597,21.389-21.393s-9.597-21.389-21.389-21.389Z"/></g></svg>